<svg xmlns="http://www.w3.org/2000/svg" enable-background="new 0 0 70 70" viewBox="0 0 70 70" id="geography">
  <path fill="white" d="M61.625,52.451h-20.81c-0.78-2.72-3.12-4.69-5.92-4.99v-2.78c0.45,0.03,0.91,0.04,1.36,0.04c0.01,0,0.01,0,0.01,0
		c6.01,0,11.66-2.25,16.01-6.34l1.27,1.28c0.29,0.29,0.77,0.3,1.06,0.01c0.3-0.3,0.3-0.77,0.01-1.07c-0.1-0.1-4.12-4.11-4.37-4.36
		c6.97-7.55,6.65-19.25-0.5-26.41c-7.1-7.1-18.73-7.6-26.4-0.5c-0.1-0.1-4.1-4.11-4.35-4.36c-0.3-0.3-0.77-0.3-1.06-0.01
		c-0.3,0.29-0.3,0.77-0.01,1.06l1.29,1.3c-13.14,14-4.64,36.94,14.18,39.22v2.92c-2.81,0.3-5.15,2.27-5.92,4.99h-19.1
		c-1.17,0-2.13,0.96-2.13,2.14v11.02c0,1.18,0.96,2.14,2.13,2.14h53.25c1.17,0,2.13-0.96,2.13-2.14v-11.02
		C63.755,53.411,62.795,52.451,61.625,52.451z M25.635,7.351c1.1,0.7,2.69,1.1,3.56,1.11c1.29-0.01,1.57,0.04,1.74,0.26
		c0.34,0.43-0.14,1.3-0.36,1.9c-0.72,1.9-0.54,4.1,0.49,5.86c1.43,2.47,3.92,2.24,4.91,0.13c0.84-1.7,0.04-2.02,3.27-5.3
		c1.92-1.94,3.32-3.53,3.49-6.33c0.47,0.19,0.93,0.4,1.38,0.63c-1.6,2.06-1.14,4.89,0.57,6.88c1.21,1.34,1.22,1.36,0.61,2.82
		c-0.9,2.29,0.52,3.6,2.46,3.39c0.61-0.07,1.25-0.27,1.76-0.24c1.1,0.07,1.8,1.24,1.31,2.27c-0.31,0.63-1.05,1.22-1.13,2.25
		c-0.1,1.48,1.47,2.94,3.64,2.34c-1.47,6.3-6.22,11.32-12.68,12.97c1.44-2.4,3.72-1.78,6.02-3.08c2.78-1.57,3.59-5.15,2.09-6.92
		c-1.06-1.28-2.94-1.3-4.22-0.78c-2.35,0.92-3.82,3.54-5.94,3.81c-0.43,0.06-0.97-0.06-1.08-0.34c-0.25-0.68,0.85-1.25,3.48-3.04
		c5.71-3.92-0.66-8.61-5.42-6.6c-2.18,0.9-2.9,2.45-6.36,0.63c-1.19-0.62-2.41-1.44-3.86-1.8c-3.93-0.92-6.45,2.36-4.4,5.97
		c1.27,2.18,4.18,3.95,3.9,6.31c-0.06,0.55-0.32,1.09-0.61,1.66C16.325,26.671,16.995,13.961,25.635,7.351z M20.255,6.361l2.03,2.03
		c-11.23,12.15-2.63,31.98,13.97,31.98c4.68,0,9.31-1.73,12.93-5.07l2.03,2.02c-4.07,3.81-9.35,5.9-14.95,5.9c0,0,0,0-0.01,0
		C17.135,43.221,7.255,20.271,20.255,6.361z M13.785,66.251h-5.41c-0.34,0-0.63-0.29-0.63-0.64v-11.02c0-0.35,0.29-0.64,0.63-0.64
		h5.41V66.251z M49.675,66.251h-29.35v-12.3h29.35V66.251z M62.255,65.611c0,0.35-0.28,0.64-0.63,0.64h-5.41v-12.3h5.41
		c0.35,0,0.63,0.29,0.63,0.64V65.611z"></path>
  <path fill="white" d="M35.005,63.501c4.01,0,8.06-1.17,8.06-3.4c0-2.23-4.05-3.4-8.06-3.4s-8.07,1.17-8.07,3.4
		C26.935,62.331,30.995,63.501,35.005,63.501z"></path>
</svg>
