<?xml version="1.0" encoding="utf-8"?>
<!-- Generator: Adobe Illustrator 27.5.0, SVG Export Plug-In . SVG Version: 6.00 Build 0)  -->
<svg version="1.1" xmlns="http://www.w3.org/2000/svg" xmlns:xlink="http://www.w3.org/1999/xlink" x="0px" y="0px"
	 viewBox="0 0 750 500" style="enable-background:new 0 0 750 500;" xml:space="preserve">
<g id="OBJECTS">
	<g>
		<path d="M722.798,247.976l-19.796-9.9l-8.843-9.321l0.717-7.648l0.239-10.516l32.57,23.58l-3.19-5.694l-13.36-13.616
			l-11.681-12.75l-13.846-7.301l-3.511,7.093l-7.735,4.202l-11.775-6.173l-16.11-11.034l-11.476-9.048l-10.081,11.394l-6.882,10.787
			l-8.287-3.125l-13.044-14.451l-16.281-18.048l-10.986-7.965l-8.901-8.893l-30.81,21.918l-7.636,9.27l-17.256,12.898
			l-10.373-10.289l-20.55-12.32l-13.05-1.011l-17.892-11.83l-11.145-4.801l-6.962,11.9l-8.322,7.394l-16.012,22.336l-37.419,23.199
			l-8.641-1.691l-11.271-4.311l-12.94-8.458l-10.487,10.801l-5.057,7.927l-7.598-3.12l-14.822-15.608l-12.265-6.838l-9.52-12.635
			l-15.118-11.42l-9.557,12.975l-18.486,15.644L199,221.238l-9.586-9.07l-14.743-19.864l-15.362-18.236l-13.452-20.201
			l-10.244,8.108l-14.021,13.099l-8.577-1.871l-11.742-4.978l-12.05,9.327l-11.593,10.068l-16.075,30.246l-24.599,24.9
			l-12.292,17.53l17.54-12.456l26.47-24.581l22.133-33.465l12.763-7.53l1.689,4.256l-2.715,5.393l7.039-0.805l-0.761,6.44
			l-8.975,9.503l6.676-2.119l9.013-6.71l-0.668-7.416l13.358-9.963l15.126-15.027l-1.335,8.122l-3.338,5.754l-0.109,6.523
			l6.953-7.276l1.558,5.399l-0.5,10.706l-8.679,9.535l-8.346,11.635l9.013-7.751l5.675-2.825l-0.668,8.828l-8.012,10.241
			l-2.632,8.353l-2.696,5.877l15.343-15.29l11.016-7.434l7.941,8.48l5.431-2.545l26.464,25.07l-20.579,17.63l-7.739,11.7
			l-8.885,5.442l-41.112,22.826l-11.933,6.625l-8.162,15.329l12.634-13.506l16.842-3.646l18.663-4.04l6.693-5.661l17.017-14.392
			l12.483-15.799l11.407-5.205l-5.944,12.832l23.351,1.735l6.667,6.069l6.22,5.662l19.248-0.117l-14.874-4.554l-2.717-7.414
			l-0.295-0.374l-12.126-15.393l3.339-15.09l6.574,4.441l8.856,5.983l-9.067-16.395l8.862-13.011l13.494,7.48l12.656,17.759
			l4.12,14.734l13.567-0.302l19.93,6.786l-20.557-14.067l-7.577-12.198l-10.119-14.795l-17.837-10.472l11.31-7.96l21.152,13.437
			l-21.078-20.048l-4.687-4.04l10.716-9.644l9.322,9.431l-5.995-12.114l-2.36-9.538l16.235,18.486l8.114,9.595l12.627,10.346
			l-6.169,0.29l3.147,2.647l7.261,3.144l9.915,6.041l-11.438,2.351l11.343,6.148l13.188,5.727l6.896,8.174l2.81,6.019l-16.745-9.683
			l5.663,8.161l2.814,5.648l6.321,19.979l35.262,10.76l16.003,3.671l-32.841-19.826l-8.697-16.167l-0.724-8.816l6.956,2.889
			l11.01,7.845l-10.145-11.712l-10.58-9.62l-3.201-7.784l5.738,1.467l-5.663-8.161l0.88-5.173l12.209,10.943l-8.099-10.901
			l-4.046-5.782l-1.553-8.12l20.345,18.528l1.074,0.533l21.409,10.617l-0.905,7.391l11.023,6.806l8.196,2.196l14.695,11.762
			l8.934,7.151l13.133,1.894l-12.358-7.348l-0.301-0.179l-15.899-11.788l-12.651-8.232l5.386-3.822l-0.32-8.107l33.462,21.831
			l10.93,13.244l11.339,13.74l5.472,8.443l12.711,8.741l14.878,9.282l-10.209-12.625l-12.65-10.83l-6.725-11.454l-1.12-1.907
			l-1.664-2.148l-2.92-3.77l-10.15-13.104l-1.963-1.408l-6.707-4.811l-9.254-8.412l-16.353-14.351l-9.183-9.147l12.91-10.975
			l7.772-0.22l7.35-7.043l10.196,6.174l14.2,12.699l-2.495-4.881l-2.436-6.938l-7.415-8.506l-0.618-7.332l5.252,2.346l8.342,6.437
			l-7.724-9.664l-8.163-3.758l1.808-5.434l3.916,0.858l-3.869-5.145l0.254-4.578l5.437,2.806l-0.101-5.418l-3.09-4.779l-1.236-6.746
			l14,12.481l7.873,6.437l3.872,7.997l8.342,5.573l8.911,3.618l9.122,7.323l8.814,7.076l-5.304-6.219l-1.183-1.57l-7.202-9.557
			l-11.927-6.423l-4.064-5.731l6.515,0.669l-2.802-6.395l23.983,26.059l3.648,3.964l19.566,18.789l2.113,3.254l8.363,12.879
			l24.3,29.927l-11.511-21.528l-5.685-10.319l-5.736-11.666l-5.347-4.297l-2.837-10.354l5.248-6.493l11.341,1.282l6.372,2.44
			l5.058,6.158l1.504,8.302l2.187-4.312l9.969,9.039l10.963,20.443l-7.262-22.993l-4.092-6.184l-5.477-5.783l-5.234-7.713
			l-5.848-4.197l1.376-6.878l6.972,2.855l-8.348-11.34l4.388,0.272l0.481-4.519l6.253-11.448l15.387,10.22l-5.995-12.114
			l-2.36-9.537l16.235,18.486l8.114,9.596l12.627,10.346l-6.169,0.29l0.785,3.283l7.759,4.555l11.778,3.995l-11.438,2.351
			l11.343,6.148l13.188,5.727l6.896,8.174l2.81,6.019l-16.745-9.683l9.185,10.782l-1.972,5.906l21.04,10.531l7.89,8.219
			l27.426,12.21l-29.293-25.104l-9.75-10.316l-0.724-8.816l6.956,2.889l11.01,7.844l-10.145-11.712l-10.58-9.62l-3.201-7.784
			l5.738,1.467l-5.664-8.161l0.88-5.173l12.209,10.943l-8.099-10.901l-4.046-5.782l-1.553-8.12l20.345,18.528l22.483,11.15
			l-0.905,7.391l9.664,10.71l4.541,0.239l28.643,16.967l13.133,1.894L722.798,247.976z M161.754,202.735l-3.243-4.053l-4.054-19.863
			l5.81,8.107l8.107,9.999l-7.837-5.81l2.027,7.972l8.513,13.107L161.754,202.735z M385.717,227.746l1.981,2.908l-2.548-2.425
			l-7.914-7.534l-6.28,0.956l10.513-4.505l4.856-4.202l2.244-1.942l-1.597,2.586l-5.183,8.393L385.717,227.746z M538.049,175.717
			l-2.22,9.856l-1.036,4.601l-4.64-1.043l-3.542-0.797l-11.692,6.308l14.53-9.837l3.474-8.106l14.68-12.969L538.049,175.717z
			 M626.166,208.788l0.231,4.162l-6.937-6.243l3.237-5.549l3.931-5.78l-2.543,8.555L626.166,208.788z M683.303,212.294l-4.104-2.803
			l3.775-1.168l1.97-4.205l0.656,12.693L683.303,212.294z" fill="#fff"/>
		<polygon points="594.319,281.61 577.103,265.807 588.501,285.555 592.317,290.733 587.704,294.788 584.005,298.04 599.82,295.491 
			617.447,302.227 605.269,294.432 		" fill="#fff"/>
	</g>
</g>
</svg>
