<?xml version="1.0" encoding="utf-8"?>
<!-- Generator: Adobe Illustrator 27.5.0, SVG Export Plug-In . SVG Version: 6.00 Build 0)  -->
<svg version="1.1" xmlns="http://www.w3.org/2000/svg" xmlns:xlink="http://www.w3.org/1999/xlink" x="0px" y="0px"
	 viewBox="0 0 750 500" style="enable-background:new 0 0 750 500;" xml:space="preserve">
<g id="OBJECTS">
	<g>
		<path d="M246.754,146.692c-1.561,0.777-4.176,1.461-6.764,1.752c-2.588,0.292-4.371,2.018-5.492,1.778
			c-0.016-0.004-0.031-0.008-0.047-0.012c-0.138-0.031-0.219-0.07-0.276-0.11c-0.005,0.002-0.007-0.004-0.01-0.006
			c-0.165-0.111-0.168-0.237-0.55-0.315c-0.546-0.11-0.8,0.009-1.2,0.274c-0.029,0.019-0.055,0.036-0.081,0.051
			c-0.007,0.004-0.013,0.007-0.019,0.011c-0.021,0.012-0.041,0.023-0.06,0.032c-0.005,0.002-0.009,0.005-0.014,0.007
			c-0.151,0.071-0.276,0.069-0.537,0.013c-0.043-0.009-0.092-0.02-0.144-0.032c-0.183-0.043-0.42-0.103-0.749-0.178
			c-1.179-0.271-4.092-0.743-5.825-0.872c-1.735-0.126-2.537-1.298-2.944-1.297c-0.407,0.001-0.095,0.722,0.601,1.134
			c0.261,0.155,0.578,0.353,0.98,0.548c0.657,0.32,1.676,1.577,2.885,1.679c1.935,0.164,5.137,1.032,5.565,1.229
			c0.427,0.191,0.196-0.013,0.27,0.323c0.078,0.338,0.086,0.453-0.67,0.667c-0.758,0.217-0.793,0.273-0.324,0.598
			c0.471,0.33,0.077,0.634,0.62,0.928c0.525,0.284,0.855,0.806,1.437,1.039c-0.007,0.084,0.207,0.188,0.22,0.087
			c0.353,0.134,1.478,0.531,1.59,0.556c0.591,0.134,0.824-0.363,1.519-0.357c0.697,0.01,1.086-0.848,1.344-1.186
			c0.255-0.34,1.01-0.372,0.546-0.624c-0.465-0.251-2.172-1.065-2.574-1.212c-0.401-0.142-0.316-0.502,0.133-0.516
			c0.449-0.013,2.835-0.135,5.332-1.214c1.212-0.524,2.347-0.965,3.354-1.331c1.072-0.396,1.352-1.337,2.083-1.569
			c1.421-0.446,0.711-0.424,1.515-1.093c0.804-0.67,0.467-1.002,0.467-1.002s1.043-0.907,1.072-1.368
			C250.039,144.639,248.318,145.917,246.754,146.692z" fill="#fff"/>
		<path d="M359.9,54.477c-0.591-0.001-1.755,1.701-4.275,1.883c-2.517,0.188-6.747,0.873-8.458,1.267
			c-0.478,0.109-0.823,0.196-1.089,0.259c-0.076,0.017-0.147,0.033-0.21,0.046c-0.379,0.081-0.561,0.084-0.78-0.019
			c-0.007-0.003-0.013-0.006-0.02-0.01c-0.028-0.014-0.057-0.029-0.087-0.047c-0.009-0.005-0.018-0.01-0.028-0.016
			c-0.037-0.022-0.076-0.046-0.118-0.074c-0.581-0.385-0.95-0.558-1.742-0.398c-0.555,0.114-0.559,0.296-0.798,0.458
			c-0.005,0.003-0.007,0.01-0.015,0.008c-0.084,0.058-0.201,0.115-0.401,0.159c-0.022,0.006-0.045,0.012-0.068,0.017
			c-1.628,0.348-4.216-2.159-7.975-2.582c-3.759-0.423-7.556-1.416-9.822-2.545c-2.271-1.126-4.771-2.982-4.726-2.306
			c0.042,0.67,1.557,1.987,1.557,1.987s-0.489,0.483,0.679,1.455c1.168,0.972,4.885,3.914,6.442,4.49
			c1.462,0.531,2.632,0.514,4.391,1.275c3.627,1.567,6.353,1.779,7.005,1.798c0.652,0.019,0.775,0.543,0.194,0.749
			c-0.584,0.213-3.064,1.395-3.738,1.76c-0.675,0.365,0.422,0.413,0.792,0.906c0.374,0.49,0.94,1.737,1.952,1.722
			c1.01-0.007,1.349,0.714,2.206,0.519c0.162-0.037,1.797-0.614,2.309-0.808c0.019,0.147,0.331-0.005,0.32-0.127
			c0.845-0.338,1.325-1.096,2.087-1.508c0.789-0.427,0.217-0.868,0.901-1.347c0.682-0.472,0.631-0.554-0.47-0.869
			c-1.098-0.31-1.027-0.726-0.408-1.004c0.622-0.285,5.47-1.998,8.281-2.236c1.755-0.148,2.862-1.955,3.817-2.42
			c0.584-0.284,1.044-0.572,1.424-0.796C360.038,55.525,360.491,54.478,359.9,54.477z" fill="#fff"/>
		<path d="M219.307,73.938c0.149,0.007,0.74-0.201,1.59-0.495c0.413-0.143,0.798-0.261,1.139-0.357
			c0.363-0.104,0.678-0.182,0.925-0.241c0.48-0.112,0.245-0.122,0.527-0.323c0.282-0.201,0.179-0.319,0.179-0.319
			s0.367-0.274,0.387-0.425c0.022-0.153-0.578,0.227-1.113,0.444c-0.534,0.218-1.414,0.379-2.275,0.412
			c-0.76,0.029-1.34,0.441-1.716,0.464c-0.003-0.1-0.09-0.125-0.227-0.217c-0.144-0.098-0.196-0.192-0.352-0.104
			c-0.074,0.042-0.119,0.123-0.149,0.218c-0.372-0.045-0.821-0.692-1.61-0.96c-0.816-0.278-1.612-0.685-2.061-1.046
			c-0.45-0.362-0.916-0.897-0.939-0.744c-0.023,0.151,0.249,0.518,0.249,0.518s-0.132,0.084,0.08,0.357s-0.016,0.216,0.412,0.461
			c0.22,0.127,0.499,0.292,0.817,0.496c0.299,0.189,0.635,0.413,0.989,0.668c0.73,0.526,1.238,0.894,1.382,0.93
			c0.144,0.036,0.146,0.159,0.006,0.176c-0.14,0.019-0.75,0.161-0.918,0.209c-0.168,0.048,0.074,0.112,0.132,0.24
			c0.059,0.127,0.124,0.432,0.35,0.479c0.225,0.048,0.265,0.225,0.466,0.223c0.021,0,0.15-0.015,0.282-0.032
			c0.039,0.084,0.107,0.152,0.216,0.196c0.153-0.25,0.193-0.045,0.377-0.062c0.025-0.002,0.067-0.02,0.112-0.044
			c0.141,0.062,0.301,0.132,0.325,0.139c0.191,0.059,0.281-0.099,0.51-0.081c0.23,0.021,0.379-0.253,0.473-0.358
			c0.092-0.106,0.343-0.098,0.195-0.192s-0.69-0.405-0.82-0.463C219.122,74.048,219.158,73.931,219.307,73.938z" fill="#fff"/>
		<path d="M523.833,80.756c-0.805-0.053-2.01-0.39-3.113-0.877c-0.973-0.43-1.955-0.267-2.442-0.468
			c0.057-0.128-0.037-0.212-0.152-0.412c-0.121-0.211-0.129-0.361-0.379-0.346c-0.119,0.007-0.225,0.081-0.321,0.183
			c-0.44-0.285-0.609-1.373-1.435-2.194c-0.855-0.85-1.607-1.849-1.95-2.579c-0.345-0.731-0.602-1.689-0.725-1.511
			c-0.122,0.176-0.004,0.805-0.004,0.805s-0.218,0.024-0.118,0.498c0.099,0.474-0.152,0.262,0.235,0.832
			c0.199,0.294,0.448,0.672,0.723,1.124c0.26,0.422,0.545,0.908,0.834,1.447c0.596,1.109,1.008,1.883,1.167,2.017
			c0.159,0.134,0.086,0.289-0.1,0.225c-0.188-0.062-1.041-0.258-1.282-0.3s0.024,0.187,0.019,0.383
			c-0.003,0.197-0.109,0.62,0.147,0.817c0.254,0.198,0.196,0.445,0.448,0.566c0.026,0.013,0.198,0.073,0.374,0.133
			c-0.003,0.13,0.041,0.257,0.152,0.378c0.345-0.221,0.27,0.062,0.512,0.153c0.033,0.012,0.097,0.016,0.168,0.014
			c0.139,0.165,0.298,0.35,0.323,0.374c0.205,0.191,0.414,0.047,0.691,0.211c0.276,0.167,0.632-0.086,0.814-0.16
			c0.181-0.076,0.491,0.087,0.364-0.122c-0.127-0.209-0.62-0.932-0.747-1.085c-0.127-0.15-0.009-0.275,0.174-0.175
			c0.183,0.099,1.053,0.201,2.303,0.352c0.607,0.073,1.164,0.161,1.651,0.25c0.521,0.092,0.964,0.186,1.31,0.264
			c0.672,0.153,0.383-0.004,0.861-0.084c0.478-0.08,0.42-0.292,0.42-0.292s0.629-0.119,0.748-0.297
			C525.625,80.701,524.639,80.811,523.833,80.756z" fill="#fff"/>
		<path d="M590.585,110.057c-0.357-0.067-1.251,0.828-2.792,0.655c-1.54-0.171-4.17-0.234-5.247-0.189
			c-0.301,0.011-0.519,0.025-0.686,0.033c-0.047,0.002-0.092,0.004-0.132,0.004c-0.238,0.006-0.348-0.013-0.469-0.099
			c-0.004-0.003-0.007-0.005-0.011-0.008c-0.015-0.012-0.031-0.024-0.047-0.038c-0.005-0.004-0.01-0.008-0.015-0.013
			c-0.02-0.018-0.041-0.037-0.063-0.058c-0.307-0.298-0.51-0.444-1.007-0.437c-0.348,0.006-0.37,0.116-0.533,0.186
			c-0.003,0.001-0.006,0.005-0.01,0.003c-0.057,0.026-0.134,0.047-0.26,0.051c-0.014,0.001-0.028,0.002-0.043,0.003
			c-1.021,0.027-2.301-1.778-4.521-2.458c-2.22-0.679-4.4-1.707-5.64-2.643c-1.244-0.935-2.543-2.337-2.592-1.925
			c-0.05,0.409,0.715,1.375,0.715,1.375s-0.35,0.236,0.245,0.955c0.595,0.718-0.024,0.583,1.149,1.206
			c0.602,0.323,1.048,1.467,1.923,1.99c0.822,0.485,1.745,1.058,2.721,1.715c2.012,1.354,3.728,1.578,4.119,1.663
			c0.391,0.085,0.406,0.415,0.032,0.474c-0.376,0.063-2.006,0.496-2.454,0.641c-0.448,0.144,0.208,0.297,0.376,0.636
			c0.171,0.338,0.372,1.154,0.984,1.259c0.61,0.109,0.734,0.583,1.273,0.562c0.102-0.004,1.154-0.168,1.484-0.227
			c-0.005,0.091,0.2,0.034,0.207-0.04c0.548-0.108,0.923-0.512,1.43-0.675c0.524-0.169,0.229-0.499,0.695-0.711
			c0.465-0.208,0.443-0.263-0.186-0.577c-0.628-0.311-0.602-0.41-0.478-0.694c0.12-0.282,3.672,0.61,6.79-0.382
			c1.504-0.479,2.076-1.248,2.33-1.341C590.55,110.705,590.941,110.124,590.585,110.057z" fill="#fff"/>
		<path d="M312.75,103.132c-2.292,1.73-6.318,3.628-10.42,4.883c-4.102,1.255-6.466,4.589-8.353,4.54
			c-0.026-0.002-0.052-0.004-0.079-0.005c-0.233-0.008-0.375-0.047-0.481-0.094c-0.008,0.004-0.012-0.004-0.018-0.006
			c-0.301-0.13-0.343-0.332-0.985-0.344c-0.917-0.013-1.293,0.256-1.86,0.807c-0.041,0.039-0.079,0.074-0.116,0.107
			c-0.009,0.008-0.018,0.016-0.028,0.024c-0.03,0.026-0.059,0.049-0.087,0.071c-0.007,0.005-0.014,0.01-0.021,0.015
			c-0.223,0.16-0.426,0.196-0.866,0.184c-0.073-0.001-0.156-0.004-0.243-0.008c-0.309-0.015-0.712-0.04-1.267-0.062
			c-1.991-0.083-6.849,0.035-9.694,0.35c-2.847,0.321-4.499-1.334-5.158-1.209c-0.659,0.124,0.065,1.198,1.317,1.654
			c0.469,0.171,1.043,0.396,1.753,0.591c1.161,0.32,3.827,1.792,5.776,2.233c4.295,0.972,9.097-0.163,9.319,0.359
			c0.228,0.524,0.276,0.707-0.883,1.282c-1.162,0.581-1.202,0.683-0.343,1.066c0.862,0.392,0.316,1.003,1.285,1.314
			c0.936,0.301,1.629,1.047,2.641,1.247c0.013,0.138,0.393,0.242,0.383,0.074c0.612,0.11,2.554,0.413,2.742,0.42
			c0.996,0.038,1.224-0.836,2.352-1.038c1.131-0.194,1.502-1.702,1.818-2.326c0.309-0.627,1.523-0.909,0.694-1.175
			c-0.829-0.267-3.839-1.067-4.534-1.183c-0.692-0.108-0.664-0.718,0.06-0.875c0.723-0.157,2.288-0.898,6.424-2.621
			c2.265-0.944,3.719-2.643,5.238-3.539c1.615-0.966,2.615-1.999,3.728-2.596c2.166-1.152,1.822-2.064,2.922-3.391
			c1.099-1.327,0.453-1.764,0.453-1.764s1.415-1.784,1.322-2.54C317.448,98.815,315.048,101.404,312.75,103.132z" fill="#fff"/>
		<path d="M342.059,161.351c-1.552,0.328-4.043,0.329-6.438-0.011c-2.396-0.34-4.319,0.777-5.291,0.306
			c-0.013-0.007-0.027-0.014-0.04-0.021c-0.12-0.059-0.185-0.112-0.231-0.161c-0.005,0-0.006-0.005-0.008-0.007
			c-0.129-0.137-0.11-0.249-0.441-0.406c-0.474-0.224-0.726-0.177-1.136-0.035c-0.029,0.01-0.057,0.019-0.083,0.027
			c-0.007,0.002-0.013,0.004-0.019,0.005c-0.021,0.006-0.041,0.011-0.06,0.015c-0.005,0.001-0.009,0.002-0.014,0.003
			c-0.149,0.028-0.263-0.003-0.489-0.113c-0.038-0.018-0.08-0.039-0.125-0.061c-0.158-0.081-0.362-0.189-0.647-0.331
			c-1.019-0.513-3.571-1.605-5.117-2.12c-1.548-0.513-2.064-1.737-2.432-1.83c-0.368-0.094-0.215,0.618,0.341,1.144
			c0.209,0.197,0.467,1.231,0.796,1.497c0.538,0.436,0.93,1.33,1.909,1.909c1.534,0.908,2.307,0.954,2.66,1.228
			c0.352,0.268,2.732,0.643,2.739,0.958c0.01,0.318-0.003,0.421-0.727,0.436c-0.725,0.017-0.767,0.059-0.4,0.455
			c0.367,0.401-0.044,0.579,0.395,0.966c0.424,0.373,0.63,0.913,1.115,1.253c-0.022,0.073,0.154,0.215,0.184,0.128
			c0.295,0.2,1.243,0.813,1.34,0.861c0.51,0.255,0.811-0.131,1.44,0.035c0.629,0.17,1.136-0.5,1.43-0.74
			c0.291-0.242,0.981-0.096,0.606-0.427c-0.376-0.331-1.775-1.446-2.113-1.67c-0.337-0.218-0.196-0.518,0.213-0.426
			c0.409,0.092,2.116-0.178,4.571-0.556c1.191-0.184,2.299-0.313,3.276-0.404c1.041-0.103,1.938-0.159,2.641-0.196
			c1.367-0.067,0.72-0.211,1.568-0.619c0.848-0.407,0.603-0.78,0.603-0.78s1.107-0.563,1.216-0.965
			C345.402,160.291,343.614,161.026,342.059,161.351z" fill="#fff"/>
		<path d="M173.624,95.81c-0.693,0.523-1.912,1.098-3.153,1.478c-1.095,0.335-1.781,1.159-2.319,1.338
			c-0.044-0.144-0.18-0.146-0.414-0.229c-0.247-0.087-0.36-0.203-0.552-0.015c-0.092,0.09-0.126,0.224-0.133,0.375
			c-0.558,0.077-1.463-0.69-2.714-0.776c-1.295-0.09-2.611-0.374-3.405-0.728c-0.795-0.352-1.679-0.952-1.654-0.721
			c0.024,0.229,0.563,0.658,0.563,0.658s-0.161,0.173,0.254,0.489c0.415,0.316,0.061,0.32,0.778,0.512
			c0.369,0.1,0.838,0.232,1.38,0.406c0.509,0.16,1.084,0.356,1.698,0.591c1.266,0.484,2.147,0.824,2.37,0.821
			c0.224-0.003,0.274,0.175,0.077,0.254c-0.197,0.082-1.029,0.523-1.255,0.658c-0.226,0.135,0.151,0.136,0.285,0.299
			c0.136,0.163,0.348,0.582,0.695,0.562c0.346-0.017,0.473,0.225,0.764,0.145c0.03-0.008,0.213-0.08,0.399-0.155
			c0.089,0.107,0.215,0.18,0.39,0.201c0.125-0.423,0.264-0.14,0.525-0.236c0.035-0.013,0.09-0.056,0.147-0.107
			c0.229,0.036,0.49,0.075,0.527,0.077c0.301,0.012,0.37-0.253,0.711-0.314c0.342-0.059,0.455-0.515,0.55-0.704
			c0.094-0.189,0.461-0.275,0.21-0.355c-0.251-0.08-1.162-0.323-1.372-0.358c-0.209-0.033-0.201-0.217,0.018-0.265
			c0.219-0.048,1-0.578,2.124-1.335c0.545-0.368,1.061-0.688,1.521-0.959c0.489-0.292,0.916-0.527,1.253-0.707
			c0.656-0.349,0.31-0.273,0.642-0.674c0.333-0.402,0.137-0.534,0.137-0.534s0.428-0.54,0.4-0.769
			C175.045,94.504,174.319,95.288,173.624,95.81z" fill="#fff"/>
		<path d="M493.756,106.087c-0.385,0.29-1.061,0.609-1.75,0.82c-0.608,0.186-0.988,0.643-1.287,0.743
			c-0.024-0.08-0.1-0.081-0.23-0.127c-0.137-0.048-0.2-0.113-0.306-0.008c-0.051,0.05-0.07,0.125-0.074,0.208
			c-0.31,0.043-0.812-0.383-1.506-0.431c-0.719-0.05-1.449-0.208-1.89-0.404c-0.441-0.196-0.932-0.528-0.918-0.4
			c0.013,0.127,0.313,0.366,0.313,0.366s-0.089,0.096,0.141,0.271c0.23,0.175,0.034,0.178,0.432,0.284
			c0.205,0.055,0.465,0.129,0.766,0.226c0.283,0.089,0.602,0.197,0.943,0.328c0.703,0.269,1.192,0.457,1.316,0.456
			c0.124-0.002,0.152,0.097,0.043,0.141c-0.109,0.045-0.572,0.291-0.697,0.366c-0.126,0.075,0.084,0.075,0.158,0.166
			c0.075,0.09,0.193,0.323,0.386,0.312c0.192-0.01,0.263,0.125,0.424,0.081c0.017-0.005,0.118-0.044,0.221-0.086
			c0.049,0.06,0.119,0.1,0.217,0.112c0.07-0.235,0.146-0.078,0.292-0.131c0.02-0.007,0.05-0.031,0.081-0.06
			c0.127,0.02,0.272,0.042,0.292,0.043c0.167,0.006,0.206-0.141,0.395-0.174c0.19-0.033,0.252-0.286,0.305-0.391
			c0.052-0.105,0.256-0.153,0.117-0.198c-0.139-0.045-0.645-0.179-0.762-0.199c-0.116-0.018-0.111-0.121,0.01-0.147
			c0.122-0.027,0.555-0.321,1.179-0.741c0.303-0.204,0.589-0.382,0.844-0.532c0.271-0.162,0.509-0.293,0.696-0.393
			c0.364-0.193,0.172-0.151,0.356-0.374c0.185-0.223,0.076-0.296,0.076-0.296s0.238-0.3,0.222-0.427
			C494.545,105.362,494.142,105.796,493.756,106.087z" fill="#fff"/>
		<path d="M421.486,125.56c-1.643,0.605-4.327,1.002-6.941,1.011c-2.307,0.008-4.109,1.197-5.252,1.229
			c0-0.303-0.261-0.387-0.665-0.682c-0.426-0.311-0.576-0.602-1.055-0.35c-0.229,0.12-0.373,0.36-0.476,0.646
			c-1.122-0.176-2.419-2.183-4.781-3.079c-2.445-0.927-4.818-2.243-6.142-3.388c-1.328-1.143-2.684-2.814-2.77-2.355
			c-0.087,0.456,0.702,1.598,0.702,1.598s-0.41,0.24,0.205,1.091c0.616,0.851-0.07,0.653,1.202,1.441
			c0.653,0.407,1.482,0.936,2.425,1.588c0.888,0.606,1.883,1.317,2.931,2.129c2.16,1.671,3.66,2.84,4.094,2.964
			c0.433,0.125,0.426,0.496,0.001,0.534c-0.427,0.043-2.29,0.409-2.805,0.538c-0.515,0.129,0.212,0.349,0.375,0.743
			c0.167,0.392,0.332,1.324,1.012,1.487c0.678,0.168,0.781,0.71,1.389,0.726c0.063,0.002,0.457-0.03,0.859-0.066
			c0.109,0.259,0.308,0.473,0.635,0.616c0.489-0.742,0.59-0.115,1.15-0.149c0.076-0.005,0.205-0.055,0.345-0.121
			c0.421,0.204,0.9,0.431,0.971,0.455c0.575,0.198,0.862-0.272,1.555-0.191c0.694,0.087,1.177-0.728,1.471-1.037
			c0.291-0.311,1.049-0.262,0.612-0.563c-0.436-0.302-2.052-1.3-2.437-1.49c-0.385-0.185-0.26-0.536,0.189-0.5
			c0.45,0.036,2.264-0.531,4.874-1.336c1.266-0.391,2.448-0.708,3.492-0.963c1.113-0.279,2.074-0.482,2.829-0.634
			c1.467-0.29,0.755-0.346,1.631-0.926c0.875-0.58,0.576-0.949,0.576-0.949s1.14-0.792,1.219-1.249
			C424.988,123.869,423.131,124.957,421.486,125.56z" fill="#fff"/>
		<path d="M519.664,132.666c-0.808,0.39-2.158,0.726-3.492,0.861c-1.177,0.118-2.038,0.814-2.619,0.887
			c-0.015-0.155-0.152-0.184-0.373-0.315c-0.233-0.138-0.323-0.279-0.556-0.127c-0.111,0.073-0.173,0.202-0.211,0.353
			c-0.581-0.034-1.343-0.994-2.593-1.334c-1.294-0.352-2.57-0.906-3.303-1.424c-0.734-0.518-1.509-1.303-1.53-1.064
			c-0.022,0.237,0.438,0.781,0.438,0.781s-0.198,0.143,0.159,0.547c0.356,0.404-0.003,0.337,0.685,0.676
			c0.354,0.176,0.802,0.404,1.316,0.69c0.483,0.265,1.026,0.579,1.602,0.941c1.185,0.746,2.008,1.268,2.236,1.31
			c0.227,0.042,0.242,0.232,0.027,0.273c-0.216,0.043-1.149,0.322-1.405,0.414c-0.256,0.091,0.125,0.168,0.228,0.36
			c0.104,0.192,0.235,0.66,0.59,0.709c0.354,0.052,0.434,0.323,0.745,0.302c0.032-0.002,0.232-0.038,0.435-0.076
			c0.069,0.127,0.181,0.226,0.355,0.283c0.213-0.403,0.295-0.088,0.58-0.133c0.039-0.006,0.102-0.038,0.17-0.079
			c0.225,0.083,0.481,0.175,0.518,0.184c0.303,0.073,0.426-0.182,0.784-0.175c0.359,0.01,0.565-0.43,0.699-0.602
			c0.133-0.173,0.522-0.186,0.284-0.318c-0.238-0.132-1.112-0.562-1.318-0.64c-0.205-0.075-0.159-0.26,0.072-0.264
			c0.231-0.004,1.129-0.383,2.421-0.923c0.627-0.262,1.214-0.483,1.735-0.665c0.554-0.198,1.035-0.349,1.412-0.464
			c0.734-0.221,0.369-0.214,0.787-0.554c0.418-0.34,0.247-0.513,0.247-0.513s0.543-0.46,0.56-0.698
			C521.367,131.629,520.473,132.276,519.664,132.666z" fill="#fff"/>
		<path d="M431.267,78.369c-0.685,0.28-1.814,0.487-2.92,0.529c-0.975,0.037-1.72,0.565-2.202,0.596
			c-0.004-0.128-0.116-0.16-0.291-0.279c-0.185-0.125-0.252-0.246-0.451-0.133c-0.095,0.054-0.153,0.157-0.192,0.28
			c-0.477-0.058-1.054-0.887-2.066-1.232c-1.047-0.357-2.069-0.878-2.646-1.343c-0.578-0.464-1.176-1.151-1.205-0.955
			c-0.03,0.194,0.32,0.665,0.32,0.665s-0.17,0.107,0.102,0.458c0.273,0.351-0.02,0.277,0.529,0.592
			c0.282,0.163,0.64,0.374,1.048,0.636c0.384,0.243,0.815,0.53,1.27,0.858c0.938,0.675,1.588,1.147,1.773,1.194
			c0.185,0.046,0.187,0.204,0.008,0.226c-0.18,0.024-0.962,0.206-1.178,0.268c-0.216,0.062,0.095,0.144,0.169,0.308
			c0.076,0.164,0.16,0.555,0.449,0.614c0.289,0.061,0.34,0.289,0.598,0.287c0.027,0,0.193-0.019,0.362-0.04
			c0.05,0.108,0.137,0.196,0.277,0.251c0.196-0.321,0.248-0.057,0.484-0.08c0.032-0.003,0.086-0.026,0.144-0.056
			c0.181,0.08,0.387,0.169,0.417,0.178c0.246,0.075,0.361-0.128,0.655-0.104c0.295,0.026,0.487-0.325,0.607-0.46
			c0.118-0.136,0.44-0.126,0.251-0.247s-0.886-0.52-1.052-0.595c-0.165-0.073-0.118-0.223,0.073-0.214
			c0.191,0.009,0.95-0.257,2.041-0.635c0.53-0.184,1.025-0.335,1.462-0.458c0.466-0.134,0.87-0.234,1.187-0.309
			c0.616-0.144,0.315-0.157,0.676-0.415c0.362-0.258,0.23-0.41,0.23-0.41s0.47-0.351,0.497-0.546
			C432.723,77.603,431.954,78.09,431.267,78.369z" fill="#fff"/>
	</g>
</g>
</svg>
